<mxfile host="app.diagrams.net" modified="2023-06-05T09:49:23.704Z" agent="Mozilla/5.0 (Windows NT 10.0; Win64; x64) AppleWebKit/537.36 (KHTML, like Gecko) Chrome/114.0.0.0 Safari/537.36 Edg/114.0.1823.37" etag="lNTU34nf3-wBc2NVEIa4" version="21.3.7" type="github">
  <diagram name="Page-1" id="OByR6--c_KJKLzTTlBDF">
    <mxGraphModel dx="1379" dy="788" grid="1" gridSize="10" guides="1" tooltips="1" connect="1" arrows="1" fold="1" page="1" pageScale="1" pageWidth="827" pageHeight="1169" math="0" shadow="0">
      <root>
        <mxCell id="0" />
        <mxCell id="1" parent="0" />
        <mxCell id="82vSFKg-HAJ_n_3Zw1BQ-1" value="GateWay&amp;nbsp;" style="whiteSpace=wrap;html=1;aspect=fixed;" vertex="1" parent="1">
          <mxGeometry x="310" y="340" width="80" height="80" as="geometry" />
        </mxCell>
        <mxCell id="82vSFKg-HAJ_n_3Zw1BQ-2" value="PorterBox" style="whiteSpace=wrap;html=1;aspect=fixed;" vertex="1" parent="1">
          <mxGeometry x="160" y="220" width="80" height="80" as="geometry" />
        </mxCell>
        <mxCell id="82vSFKg-HAJ_n_3Zw1BQ-3" value="PorterBox" style="whiteSpace=wrap;html=1;aspect=fixed;" vertex="1" parent="1">
          <mxGeometry x="160" y="330" width="80" height="80" as="geometry" />
        </mxCell>
        <mxCell id="82vSFKg-HAJ_n_3Zw1BQ-4" value="PorterBox" style="whiteSpace=wrap;html=1;aspect=fixed;" vertex="1" parent="1">
          <mxGeometry x="160" y="430" width="80" height="80" as="geometry" />
        </mxCell>
        <mxCell id="82vSFKg-HAJ_n_3Zw1BQ-5" value="PorterBox" style="whiteSpace=wrap;html=1;aspect=fixed;" vertex="1" parent="1">
          <mxGeometry x="470" y="220" width="80" height="80" as="geometry" />
        </mxCell>
        <mxCell id="82vSFKg-HAJ_n_3Zw1BQ-6" value="PorterBox" style="whiteSpace=wrap;html=1;aspect=fixed;" vertex="1" parent="1">
          <mxGeometry x="470" y="330" width="80" height="80" as="geometry" />
        </mxCell>
        <mxCell id="82vSFKg-HAJ_n_3Zw1BQ-7" value="PorterBox" style="whiteSpace=wrap;html=1;aspect=fixed;" vertex="1" parent="1">
          <mxGeometry x="470" y="430" width="80" height="80" as="geometry" />
        </mxCell>
        <mxCell id="82vSFKg-HAJ_n_3Zw1BQ-8" value="" style="endArrow=classic;html=1;rounded=0;entryX=0;entryY=0;entryDx=0;entryDy=0;" edge="1" parent="1" target="82vSFKg-HAJ_n_3Zw1BQ-1">
          <mxGeometry width="50" height="50" relative="1" as="geometry">
            <mxPoint x="240" y="260" as="sourcePoint" />
            <mxPoint x="290" y="210" as="targetPoint" />
          </mxGeometry>
        </mxCell>
        <mxCell id="82vSFKg-HAJ_n_3Zw1BQ-9" value="" style="endArrow=classic;html=1;rounded=0;entryX=0;entryY=0.25;entryDx=0;entryDy=0;exitX=1.063;exitY=0.35;exitDx=0;exitDy=0;exitPerimeter=0;" edge="1" parent="1" source="82vSFKg-HAJ_n_3Zw1BQ-3" target="82vSFKg-HAJ_n_3Zw1BQ-1">
          <mxGeometry width="50" height="50" relative="1" as="geometry">
            <mxPoint x="240" y="350" as="sourcePoint" />
            <mxPoint x="310" y="430" as="targetPoint" />
          </mxGeometry>
        </mxCell>
        <mxCell id="82vSFKg-HAJ_n_3Zw1BQ-10" value="" style="endArrow=classic;html=1;rounded=0;entryX=0.088;entryY=0.988;entryDx=0;entryDy=0;entryPerimeter=0;" edge="1" parent="1" target="82vSFKg-HAJ_n_3Zw1BQ-1">
          <mxGeometry width="50" height="50" relative="1" as="geometry">
            <mxPoint x="240" y="460" as="sourcePoint" />
            <mxPoint x="310" y="540" as="targetPoint" />
          </mxGeometry>
        </mxCell>
        <mxCell id="82vSFKg-HAJ_n_3Zw1BQ-11" value="" style="endArrow=classic;html=1;rounded=0;entryX=1;entryY=0;entryDx=0;entryDy=0;exitX=-0.05;exitY=0.6;exitDx=0;exitDy=0;exitPerimeter=0;" edge="1" parent="1" source="82vSFKg-HAJ_n_3Zw1BQ-5" target="82vSFKg-HAJ_n_3Zw1BQ-1">
          <mxGeometry width="50" height="50" relative="1" as="geometry">
            <mxPoint x="390" y="270" as="sourcePoint" />
            <mxPoint x="460" y="350" as="targetPoint" />
          </mxGeometry>
        </mxCell>
        <mxCell id="82vSFKg-HAJ_n_3Zw1BQ-12" value="" style="endArrow=classic;html=1;rounded=0;entryX=1.063;entryY=0.4;entryDx=0;entryDy=0;exitX=0;exitY=0.5;exitDx=0;exitDy=0;entryPerimeter=0;" edge="1" parent="1" source="82vSFKg-HAJ_n_3Zw1BQ-6" target="82vSFKg-HAJ_n_3Zw1BQ-1">
          <mxGeometry width="50" height="50" relative="1" as="geometry">
            <mxPoint x="379" y="380" as="sourcePoint" />
            <mxPoint x="449" y="460" as="targetPoint" />
          </mxGeometry>
        </mxCell>
        <mxCell id="82vSFKg-HAJ_n_3Zw1BQ-13" value="" style="endArrow=classic;html=1;rounded=0;entryX=1;entryY=1;entryDx=0;entryDy=0;exitX=-0.037;exitY=0.625;exitDx=0;exitDy=0;exitPerimeter=0;" edge="1" parent="1" source="82vSFKg-HAJ_n_3Zw1BQ-7" target="82vSFKg-HAJ_n_3Zw1BQ-1">
          <mxGeometry width="50" height="50" relative="1" as="geometry">
            <mxPoint x="400" y="490" as="sourcePoint" />
            <mxPoint x="470" y="570" as="targetPoint" />
          </mxGeometry>
        </mxCell>
        <mxCell id="82vSFKg-HAJ_n_3Zw1BQ-14" value="" style="endArrow=classic;html=1;rounded=0;" edge="1" parent="1">
          <mxGeometry width="50" height="50" relative="1" as="geometry">
            <mxPoint x="350" y="420" as="sourcePoint" />
            <mxPoint x="350" y="570" as="targetPoint" />
          </mxGeometry>
        </mxCell>
        <mxCell id="82vSFKg-HAJ_n_3Zw1BQ-16" value="Azure" style="ellipse;shape=cloud;whiteSpace=wrap;html=1;" vertex="1" parent="1">
          <mxGeometry x="294" y="560" width="120" height="80" as="geometry" />
        </mxCell>
        <mxCell id="82vSFKg-HAJ_n_3Zw1BQ-17" value="Display" style="whiteSpace=wrap;html=1;aspect=fixed;" vertex="1" parent="1">
          <mxGeometry x="320" y="770" width="80" height="80" as="geometry" />
        </mxCell>
        <mxCell id="82vSFKg-HAJ_n_3Zw1BQ-19" value="" style="endArrow=classic;html=1;rounded=0;entryX=0.5;entryY=0;entryDx=0;entryDy=0;" edge="1" parent="1" target="82vSFKg-HAJ_n_3Zw1BQ-17">
          <mxGeometry width="50" height="50" relative="1" as="geometry">
            <mxPoint x="360" y="640" as="sourcePoint" />
            <mxPoint x="340" y="710" as="targetPoint" />
          </mxGeometry>
        </mxCell>
      </root>
    </mxGraphModel>
  </diagram>
</mxfile>
